# xmcd
#
# Track frame offsets:
#	150
#	10744
#	20838
#	30307
#	41436
#	60215
#	72412
#	82124
#	91000
#	104650
#	120628
#	138980
#	150160
#	162045
#	173683
#	187339
#	203591
#	212737
#	223243
#
# Disc length: 3126 seconds
#
# Revision: 0
# Processed by: cddbd v1.5.2PL0 Copyright (c) Steve Scherf et al.
# Submitted via: EasyCDDAExtractor 9.0.0.1
#
DISCID=fa0c3413
DTITLE=Ray Conniff - Invisible Tears-Always Conniff
DYEAR=2006
DGENRE=Acid Jazz
TTITLE0=Honeycomb
TTITLE1=I Walk The Line
TTITLE2=Invisible Tears
TTITLE3=Kisses Sweeter Than Wine
TTITLE4=Marianne
TTITLE5=Singing The Blues
TTITLE6=Sposin'
TTITLE7=Waiting For The Evening Train
TTITLE8=Blowing In The Wind
TTITLE9=Don't Cry For Me Argentina
TTITLE10=Memories
TTITLE11=New York, New York
TTITLE12=One
TTITLE13=Sing
TTITLE14=Top Of The World
TTITLE15=Yesterday Once More
TTITLE16=Are You Lonesome Tonight
TTITLE17=Everybody Loves Somebody
TTITLE18=Far Away Places
EXTD=
EXTT0=
EXTT1=
EXTT2=
EXTT3=
EXTT4=
EXTT5=
EXTT6=
EXTT7=
EXTT8=
EXTT9=
EXTT10=
EXTT11=
EXTT12=
EXTT13=
EXTT14=
EXTT15=
EXTT16=
EXTT17=
EXTT18=
PLAYORDER=
